<?xml version="1.0" encoding="UTF-8" standalone="no"?>
<svg
   version="1.1"
   width="870"
   height="959"
   style="clip-rule:evenodd;fill-rule:evenodd;image-rendering:optimizeQuality;shape-rendering:geometricPrecision;text-rendering:geometricPrecision"
   id="svg138"
   xml:space="preserve"
   xmlns="http://www.w3.org/2000/svg"
   xmlns:svg="http://www.w3.org/2000/svg"><defs
     id="defs138" /><rect
     style="clip-rule:evenodd;fill:#ffffff;fill-opacity:1;fill-rule:evenodd;stroke-width:2.07762;stroke-linecap:round;stroke-linejoin:bevel;paint-order:stroke fill markers;image-rendering:optimizeQuality;shape-rendering:geometricPrecision;text-rendering:geometricPrecision"
     id="rect1"
     width="870"
     height="959"
     x="1.4203255e-07"
     y="0" /><path
     fill="#333333"
     d="m 315.00175,159.00003 c 1.982,0.495 3.982,0.995 6,1.5 -5.229,2.08 -5.063,3.913 0.5,5.5 1.873,-2.512 3.707,-2.346 5.5,0.5 -3.195,0.181 -6.195,0.681 -9,1.5 -8.415,0.708 -15.748,3.875 -22,9.5 7.023,-0.933 14.023,-0.6 21,1 -6.72,0.407 -13.053,2.074 -19,5 7.681,0.891 15.347,1.891 23,3 -10.298,-0.208 -19.965,2.126 -29,7 7.702,0.294 15.369,0.96 23,2 -8.294,1.431 -15.96,4.431 -23,9 5.307,-0.359 10.641,-0.359 16,0 -9.667,2.996 -17.334,8.663 -23,17 5.552,-3.098 11.552,-5.098 18,-6 -7.576,4.114 -13.91,9.614 -19,16.5 1.874,0.406 3.54,-0.428 5,-2.5 2.558,-1.626 5.225,-2.626 8,-3 -4.418,3.747 -8.084,8.08 -11,13 2.333,-1 4.667,-2 7,-3 -7.341,12.862 -10.174,26.695 -8.5,41.5 3.04,-10.421 8.373,-19.421 16,-27 0.308,0.808 0.808,1.475 1.5,2 5.955,-3.262 11.955,-6.429 18,-9.5 4.286,-4.064 7.452,-8.897 9.5,-14.5 0.282,3.876 -0.551,7.543 -2.5,11 3.83,0.009 7.83,0.175 12,0.5 -3.9,1.565 -7.566,3.565 -11,6 4.041,0.173 8.041,0.673 12,1.5 -10.53,4.011 -20.863,8.511 -31,13.5 3.621,-0.405 7.287,-0.405 11,0 -4.834,3.252 -9.834,6.252 -15,9 1.124,0.249 2.124,0.749 3,1.5 -4.311,3.143 -8.478,6.477 -12.5,10 -3.172,4.341 -5.839,9.008 -8,14 -0.821,3.054 -0.655,6.054 0.5,9 5,-3.5 10,-7 15,-10.5 21.841,-22.851 45.175,-43.851 70,-63 2.359,-1.358 4.693,-2.358 7,-3 -21.57,18.635 -42.57,37.968 -63,58 2.866,-1.259 5.866,-2.259 9,-3 -10.522,8.692 -20.522,17.859 -30,27.5 -0.543,0.06 -0.876,0.393 -1,1 5.292,0.995 10.625,1.328 16,1 14.231,-0.945 24.397,5.055 30.5,18 1.667,5.333 3.333,10.667 5,16 1.035,-6.925 0.202,-13.592 -2.5,-20 0.346,-1.196 0.846,-1.196 1.5,0 5.756,9.932 9.089,20.599 10,32 1.841,-5.203 3.174,-10.536 4,-16 1.127,2.877 1.794,5.877 2,9 0.55,7.053 0.55,14.053 0,21 3.008,-7.034 6.008,-14.034 9,-21 0.55,7.053 0.55,14.053 0,21 3.779,-5.223 6.779,-10.89 9,-17 0.171,5.033 0.671,10.033 1.5,15 2.655,-5.462 4.821,-11.128 6.5,-17 2.86,7.361 3.86,15.028 3,23 -1.5,8.83 -4,17.33 -7.5,25.5 3.783,-1.748 7.116,-4.414 10,-8 2.534,-1.934 5.201,-3.268 8,-4 -9.329,20.491 -19.329,40.657 -30,60.5 0.167,0.333 0.333,0.667 0.5,1 10.646,-12.626 20.312,-25.959 29,-40 -4.028,13.451 -8.362,26.785 -13,40 2.652,-4.317 5.985,-7.984 10,-11 -1.667,3.667 -3.333,7.333 -5,11 5.082,-4.466 10.582,-7.966 16.5,-10.5 -3.628,6.755 -7.128,13.588 -10.5,20.5 -5.542,5.211 -11.375,10.044 -17.5,14.5 10.882,-1.851 21.549,-4.517 32,-8 -9.669,6.503 -19.669,12.503 -30,18 11.698,-1.229 23.365,-2.562 35,-4 -8.26,2.799 -16.26,6.132 -24,10 7.984,0.856 15.984,1.523 24,2 -9.122,2.635 -18.455,4.635 -28,6 26.665,3.3 53.331,3.3 80,0 -8.717,-1.453 -17.384,-3.119 -26,-5 -0.333,-0.333 -0.667,-0.667 -1,-1 8.027,-0.605 16.027,-1.438 24,-2.5 -7.879,-3.438 -15.879,-6.605 -24,-9.5 12.298,1.579 24.631,2.912 37,4 -10.802,-5.568 -21.135,-11.901 -31,-19 11.064,4.131 22.397,7.464 34,10 -5.833,-4.5 -11.667,-9 -17.5,-13.5 -4.547,-7.258 -8.714,-14.758 -12.5,-22.5 0.667,-0.667 1.333,-0.667 2,0 4.833,3.5 9.667,7 14.5,10.5 -1.2,-4.218 -3.366,-8.051 -6.5,-11.5 0.333,-0.167 0.667,-0.333 1,-0.5 4.072,2.904 7.239,6.571 9.5,11 0.654,1.196 1.154,1.196 1.5,0 -5.64,-12.257 -9.806,-24.923 -12.5,-38 8.227,12.894 17.227,25.227 27,37 0.167,-0.333 0.333,-0.667 0.5,-1 -11.363,-19.045 -20.697,-38.712 -28,-59 5.28,3.778 10.114,8.111 14.5,13 -0.886,-6.018 -2.22,-12.018 -4,-18 -2.462,-10.24 -1.796,-20.24 2,-30 2.621,5.473 4.787,11.14 6.5,17 0.06,0.543 0.393,0.876 1,1 0.667,-5.151 1.334,-10.151 2,-15 2.218,4.767 4.718,9.434 7.5,14 0.333,-6.667 0.667,-13.333 1,-20 2.391,6.449 5.058,12.782 8,19 -0.043,-10.131 0.957,-20.131 3,-30 1.081,5.649 2.081,11.316 3,17 1.94,-10.153 5.273,-19.819 10,-29 -0.083,2.619 -0.25,5.286 -0.5,8 -1.309,3.851 -1.309,7.851 0,12 0.798,-0.457 1.131,-1.124 1,-2 0.833,-14.18 7.166,-25.014 19,-32.5 4.901,-1.325 9.901,-1.825 15,-1.5 2,0 4,0 6,0 0.237,-1.291 -0.096,-2.291 -1,-3 -3.707,-11.247 -9.374,-21.414 -17,-30.5 15.846,4.831 28.679,13.997 38.5,27.5 1.406,-6.641 0.073,-12.641 -4,-18 -5.974,-6.985 -12.808,-12.818 -20.5,-17.5 1.333,-0.333 2.667,-0.667 4,-1 -4.915,-2.575 -9.581,-5.575 -14,-9 3.213,-0.703 6.379,-0.536 9.5,0.5 1.722,-0.111 1.888,-0.611 0.5,-1.5 -9.767,-4.884 -19.767,-9.217 -30,-13 4.667,-0.333 9.333,-0.667 14,-1 -2.522,-2.09 -5.188,-3.924 -8,-5.5 0.709,-0.904 1.709,-1.237 3,-1 2.79,0.449 5.456,0.449 8,0 -2.55,-4.019 -3.383,-8.352 -2.5,-13 1.814,5.464 4.98,9.964 9.5,13.5 6.133,4.301 11.8,9.134 17,14.5 0.751,-0.876 1.251,-1.876 1.5,-3 1.537,4.439 3.37,8.773 5.5,13 0.06,0.543 0.393,0.876 1,1 1.317,-6.488 1.317,-12.822 0,-19 -0.527,-3.409 -1.027,-6.742 -1.5,-10 1.333,1.333 2.667,2.667 4,4 0.167,-0.333 0.333,-0.667 0.5,-1 -2.329,-5.005 -4.829,-9.672 -7.5,-14 4.248,2.243 7.914,5.243 11,9 -2.428,-7.139 -6.595,-13.305 -12.5,-18.5 4.96,1.484 9.626,3.484 14,6 -4.333,-7 -10,-12.667 -17,-17 4.116,-0.294 8.116,0.039 12,1 -5.58,-4.957 -11.913,-8.624 -19,-11 5.333,-0.333 10.667,-0.667 16,-1 -5.964,-3.87 -12.297,-4.537 -19,-2 -16.186,5.939 -31.852,12.606 -47,20 7.315,-7.633 15.982,-13.3 26,-17 11.486,-3.863 23.153,-7.03 35,-9.5 -2.358,-1.787 -5.025,-2.787 -8,-3 4.184,-0.666 8.518,-1.333 13,-2 -0.124,-0.607 -0.457,-0.94 -1,-1 -3.38,-2.24 -7.046,-3.907 -11,-5 2.131,-0.814 4.464,-1.314 7,-1.5 -0.544,-0.717 -1.211,-1.217 -2,-1.5 -7.315,-4.651 -15.315,-6.151 -24,-4.5 -6.958,1.876 -13.625,4.543 -20,8 -5.931,1.471 -11.931,1.804 -18,1 -8.35,-3.589 -17.017,-5.589 -26,-6 4.618,2.95 8.952,6.284 13,10 -4.026,-0.897 -8.026,-2.231 -12,-4 -4.622,-1.156 -9.289,-1.99 -14,-2.5 -1.109,-0.79 -2.442,-1.29 -4,-1.5 1.082,-1.33 1.749,-2.83 2,-4.5 3.786,-1.393 7.452,-3.059 11,-5 -0.065,0.438 0.101,0.772 0.5,1 1.828,-1.581 3.828,-2.915 6,-4 0.717,0.544 1.217,1.211 1.5,2 8.182,3.698 17.349,6.364 27.5,8 4.648,-0.548 9.148,-1.715 13.5,-3.5 17.24,-11.545 34.24,-11.212 51,1 9.685,9.011 17.852,19.178 24.5,30.5 1.439,1.948 3.272,3.281 5.5,4 5.177,-2.754 10.51,-5.254 16,-7.5 10,-3.333 20,-3.333 30,0 33.547,13.505 68.214,17.505 104,12 6.866,-0.951 13.033,-3.451 18.5,-7.5 1.036,-2.37 1.536,-4.87 1.5,-7.5 -2.671,-16.678 -8.504,-32.178 -17.5,-46.5 -21.833,-33.833 -49.667,-61.667005 -83.5,-83.500005 -37.264,-23.8719 -77.597,-40.5385 -121,-50 -2.696,-0.7648 -5.196,-1.9315 -7.5,-3.5 -0.825,-2.2008 -0.325,-4.0341 1.5,-5.5 89.336,-8.7524 170.336,12.9143 243,65 22.999,17.662 42.499,38.495005 58.5,62.500005 13.068,20.299 20.568,42.465 22.5,66.5 -1.349,19.386 -8.182,36.552 -20.5,51.5 -17.291,20.297 -37.791,36.464 -61.5,48.5 4.581,1.871 8.748,4.371 12.5,7.5 0.711,1.867 0.211,3.367 -1.5,4.5 -9.802,0.066 -19.469,-1.1 -29,-3.5 -17.674,6.085 -35.674,10.918 -54,14.5 -25.858,4.649 -51.858,8.316 -78,11 20.214,4.439 37.881,13.606 53,27.5 0.523,-4.21 1.69,-8.21 3.5,-12 2.707,-2.386 5.54,-2.552 8.5,-0.5 6.824,10.807 10.657,22.64 11.5,35.5 9.021,10.186 17.854,20.52 26.5,31 -21.539,12.103 -43.539,23.103 -66,33 2.592,5.52 5.425,10.853 8.5,16 19.238,-10.885 38.738,-21.385 58.5,-31.5 4.963,0.61 5.296,2.61 1,6 -18.429,11.277 -36.429,23.111 -54,35.5 16.289,13.122 31.122,27.788 44.5,44 9.416,33.993 13.916,68.66 13.5,104 4.431,2.632 8.598,5.632 12.5,9 59.2,-87.771 86.533,-184.771 82,-291 -0.791,-11.355 -1.457,-22.689 -2,-34 22.053,121.185 7.22,237.685 -44.5,349.5 0.46,1.301 0.794,2.634 1,4 -3.479,17.063 -6.313,34.23 -8.5,51.5 -0.333,13.333 -0.667,26.667 -1,40 -0.974,8.781 -5.141,15.615 -12.5,20.5 -25.61,17.277 -50.943,34.944 -76,53 -1.865,1.301 -3.865,1.635 -6,1 -2.795,-1.793 -5.295,-3.96 -7.5,-6.5 -4.75,11 -11.583,20.5 -20.5,28.5 -4.56,3.174 -9.56,4.174 -15,3 -4.095,-2.259 -7.762,-5.093 -11,-8.5 -31.449,23.114 -63.449,45.448 -96,67 -1.941,-0.304 -3.607,-1.137 -5,-2.5 -1.667,-0.667 -3.333,-0.667 -5,0 -16.26,5.531 -32.594,10.864 -49,16 -10.285,7.284 -20.285,14.95 -30,23 -7.869,5.43 -15.869,10.597 -24,15.5 -5.782,-3.94 -11.449,-8.107 -17,-12.5 -4.613,-3.775 -8.28,-8.275 -11,-13.5 -2.557,-0.282 -5.223,-0.449 -8,-0.5 -6,-4.667 -12,-9.333 -18,-14 -12.242,-3.711 -24.409,-7.544 -36.5,-11.5 -4.063,8.727 -10.896,13.56 -20.5,14.5 -4.667,0.667 -9.333,0.667 -14,0 -17.535,-4.103 -34.201,-10.436 -50,-19 -1.435,-2.267 -1.102,-4.267 1,-6 6.689,-0.378 13.356,-0.378 20,0 -10.462,-5.398 -20.795,-11.065 -31,-17 -9.312,-4.644 -15.812,-11.81 -19.5,-21.5 -0.922,-7.049 -2.089,-14.049 -3.5,-21 -6.667,-5.667 -13.333,-11.333 -20,-17 -5.102,4.886 -11.102,8.219 -18,10 -1.438,-0.219 -2.771,-0.719 -4,-1.5 -25.667,-18.333 -51.333,-36.667 -77,-55 -7.916998,-1.459 -14.916998,-4.793 -20.999998,-10 -5.596,-5.593 -10.430003,-11.76 -14.500003,-18.5 -7.104,-13.208 -13.937,-26.542 -20.5,-40 1.193,-1.884 2.859,-2.384 5,-1.5 10.53,10.196 20.697,20.696 30.500003,31.5 0.057,-23.439 -1.61,-46.773 -5,-70 -12.371003,-28.108 -23.371003,-56.774 -33.000003,-86 -27.5327,-90.456 -32.5327,-182.122 -15,-275 1.003,-2.435 1.503,-2.102 1.5,1 -9.4116,78.612 -0.245,154.945 27.5,229 3.346,-6.013 8.013,-10.679 14,-14 1.261,0.259 2.261003,0.926 3.000003,2 0.667,4 0.667,8 0,12 -2.241003,8.366 -4.241003,16.699 -6.000003,25 9.710003,21.757 20.710003,42.757 33.000001,63 2.998,-28.659 10.665,-55.992 23,-82 16.584,-33.375 35.751,-65.042 57.5,-95 -13.121,-6.394 -26.121,-13.061 -39,-20 -7.631,6.296 -14.964,12.962 -22,20 -0.333,-0.333 -0.667,-0.667 -1,-1 4.35,-8.037 8.684,-16.037 13,-24 -2.097,-2.553 -4.43,-4.886 -7,-7 19.896,-27.73 43.896,-51.23 72,-70.5 9.912,-5.859 20.578,-9.526 32,-11 -39.963,-3.549 -79.296,-10.549 -118,-21 -41.520001,-11.649 -74.354001,-35.149 -98.500001,-70.5 -13.33579995,-21.361 -16.0025,-44.028 -8,-68 9.1629,-29.464 24.496,-55.131 46,-77.000005 59.934001,-56.8655 131.434001,-88.0322 214.500001,-93.5 14,-0.6667 28,-0.6667 42,0 4.191,0.0738 8.191,0.9071 12,2.5 1.41,2.4492 1.076,4.6159 -1,6.5 -29.43,6.5863 -57.43,16.9197 -84,31 10.073,0.0758 20.073,0.7425 30,2 4.279,4.6258 3.613,8.6258 -2,12 -20.736,8.684 -42.069,15.518 -64,20.5 -1.6,-0.051 -3.1,-0.384 -4.5,-1 -0.667,-2.333 -0.667,-4.667 0,-7 1.289,-1.555 1.956,-3.221 2,-5 -34.76,22.093 -62.76,50.760005 -84,86.000005 -9.479,15.761 -14.478998,32.761 -14.999998,51 1.8,1.817 3.965998,2.984 6.499998,3.5 34.053,7.171 67.72,5.838 101,-4 7.258,-4.383 15.092,-6.883 23.5,-7.5 11.788,1.263 22.788,4.929 33,11 1.225,-0.362 2.391,-0.862 3.5,-1.5 9.99,-11.99 20.657,-23.323 32,-34 5.679,-4.171 12.013,-6.671 19,-7.5 z"
     id="path3" /><path
     fill="#f8f8f8"
     d="m 291.00175,322.00003 c 0.739,-0.131 1.406,0.036 2,0.5 -1,1 -2,2 -3,3 8.814,0.62 17.148,2.954 25,7 18.274,22.722 31.607,47.889 40,75.5 -2.083,-1.459 -4.25,-2.792 -6.5,-4 -4.667,-10.667 -9.333,-21.333 -14,-32 -2.843,-5.019 -6.176,-9.686 -10,-14 2.446,4.794 4.446,9.794 6,15 -9.188,-11.824 -20.355,-21.158 -33.5,-28 -9.249,4.88 -17.749,10.88 -25.5,18 -0.914,-10.099 0.753,-19.765 5,-29 1.122,-2.124 2.622,-3.957 4.5,-5.5 3.228,-2.44 6.561,-4.606 10,-6.5 z"
     id="path5" /><path
     fill="#f7f7f7"
     d="m 569.00175,323.00003 c 0.06,-0.543 0.393,-0.876 1,-1 5.388,2.11 10.221,5.11 14.5,9 5.249,10.406 7.583,21.406 7,33 -6.972,-7.31 -14.805,-13.477 -23.5,-18.5 -3.613,-0.208 -6.946,0.792 -10,3 -10.087,6.752 -18.921,14.918 -26.5,24.5 0.561,-4.489 2.394,-8.489 5.5,-12 -0.167,-0.333 -0.333,-0.667 -0.5,-1 -5.586,6.162 -9.919,13.162 -13,21 -3.058,7.783 -6.392,15.45 -10,23 -2.211,2.378 -4.711,3.378 -7.5,3 9.745,-27.668 23.745,-52.835 42,-75.5 7.523,-3.881 15.523,-5.881 24,-6 -0.873,-1.045 -1.873,-1.878 -3,-2.5 z"
     id="path6" /><path
     fill="#ededec"
     d="m 754.00175,292.00003 c 5.099,-0.325 10.099,0.175 15,1.5 8.333,3.667 16.667,7.333 25,11 -18.313,-3.325 -36.646,-6.825 -55,-10.5 5,-0.667 10,-1.333 15,-2 z"
     id="path9" /><path
     fill="#eeeeee"
     d="m 23.001749,152.00003 c 0.597,0.235 0.93,0.735 1,1.5 -7.2412,18.945 -9.4079,38.445 -6.5,58.5 1.4379,5.543 3.4379,10.876 6,16 0.333,-5 0.667,-10 1,-15 5.877,22.595 17.044,42.095 33.5,58.5 -0.333,0.167 -0.667,0.333 -1,0.5 -11.188,-10.721 -21.688,-22.055 -31.5,-34 -5.1137,-7.893 -9.447,-16.226 -13,-25 -2.6279,-21.364 0.8721,-41.697 10.5,-61 z"
     id="path12" /><path
     fill="#fafafa"
     d="m 653.00175,265.00003 c -0.06,-0.543 -0.393,-0.876 -1,-1 -1.317,6.154 -1.317,12.154 0,18 0.456,4.084 0.956,8.084 1.5,12 -8.188,-10.377 -13.688,-22.044 -16.5,-35 0.107,-1.879 -0.393,-2.212 -1.5,-1 -0.819,6.181 -0.653,12.181 0.5,18 0.316,4.025 0.483,8.025 0.5,12 -8.759,-11.598 -14.426,-24.598 -17,-39 -0.725,10.556 -0.225,21.056 1.5,31.5 -0.167,0.833 -0.333,1.667 -0.5,2.5 -7.534,-11.589 -12.534,-24.256 -15,-38 -2.307,10.93 -2.973,21.93 -2,33 -8.025,-17.802 -11.025,-36.469 -9,-56 12.046,-12.941 26.88,-19.774 44.5,-20.5 -6.874,3.937 -13.874,7.603 -21,11 -3.333,2.667 -6.667,5.333 -10,8 13.566,-4.554 27.566,-7.221 42,-8 -7.41,2.872 -14.41,6.539 -21,11 8.64,-1.106 17.307,-2.439 26,-4 3.333,-0.667 6.667,-0.667 10,0 -4.198,1.933 -7.865,4.599 -11,8 5.529,-1.464 11.196,-2.797 17,-4 8.113,-1.355 9.113,-0.355 3,3 -1,1 -2,2 -3,3 6.608,-1.697 13.274,-3.531 20,-5.5 0.333,0.167 0.667,0.333 1,0.5 -2.774,2.064 -4.607,4.564 -5.5,7.5 6.038,-3.79 12.538,-5.957 19.5,-6.5 -2.138,1.422 -3.305,3.255 -3.5,5.5 10.17,-5.194 21.004,-7.361 32.5,-6.5 6.372,-1.51 12.705,-3.176 19,-5 -37.104,3.695 -73.104,-0.971 -108,-14 -2.344,-0.837 -4.344,-2.171 -6,-4 1.333,-0.667 2.667,-0.667 4,0 35.749,14.792 72.749,19.459 111,14 11.379,-2.691 21.713,-7.524 31,-14.5 -13.638,19.125 -30.638,35.292 -51,48.5 6.531,-1.083 12.864,-3.083 19,-6 17.494,-9.246 34.827,-18.746 52,-28.5 7.088,23.346 0.421,41.846 -20,55.5 -10.7,6.103 -21.2,5.937 -31.5,-0.5 1.136,4.039 3.636,7.205 7.5,9.5 -7.551,-0.179 -14.717,-2.013 -21.5,-5.5 1.488,4.31 3.488,8.31 6,12 -7.284,-3.142 -14.284,-6.808 -21,-11 1.129,4.911 2.796,9.578 5,14 -6.543,-3.942 -12.543,-8.608 -18,-14 0.041,4.809 0.708,9.476 2,14 -6.461,-5.455 -11.794,-11.788 -16,-19 0.203,6.413 0.87,12.746 2,19 -7.033,-9.734 -12.2,-20.4 -15.5,-32 -3.999,11.994 -3.999,23.994 0,36 -0.346,1.196 -0.846,1.196 -1.5,0 -5.941,-7.882 -10.274,-16.549 -13,-26 -0.667,8 -0.667,16 0,24 0.309,1.266 0.809,2.433 1.5,3.5 -0.333,0.167 -0.667,0.333 -1,0.5 -9.737,-7.742 -15.737,-17.742 -18,-30 z"
     id="path13" /><path
     fill="#fafafa"
     d="m 261.00175,271.00003 c 1.378,-8.579 1.045,-17.245 -1,-26 -1.319,4.607 -2.319,9.273 -3,14 -3.214,9.756 -8.048,18.756 -14.5,27 1.857,-7.473 3.024,-15.14 3.5,-23 1.148,-4.481 1.315,-9.148 0.5,-14 -0.717,0.544 -1.217,1.211 -1.5,2 -2.168,14.668 -8.335,27.335 -18.5,38 2.309,-10.466 2.976,-21.133 2,-32 -2.832,13.664 -8.832,25.664 -18,36 0.136,-4.024 0.803,-8.024 2,-12 0.667,-5.667 0.667,-11.333 0,-17 -3.428,13.079 -10.428,23.746 -21,32 2.249,-9.464 2.916,-19.131 2,-29 -2.554,9.545 -7.221,17.878 -14,25 0.922,-6.237 1.422,-12.571 1.5,-19 0.013,-5.389 -0.487,-10.722 -1.5,-16 -4.094,11.523 -9.761,22.19 -17,32 -0.167,-0.667 -0.333,-1.333 -0.5,-2 1.81,-5.225 2.644,-10.558 2.5,-16 -4.206,7.212 -9.539,13.545 -16,19 1.404,-4.889 2.404,-9.889 3,-15 -5.449,5.825 -11.615,10.325 -18.5,13.5 2.518,-3.892 4.018,-8.059 4.5,-12.5 -6.62,4.225 -13.453,7.725 -20.5,10.5 2.89,-3.952 5.057,-8.119 6.5,-12.5 -6.304,3.949 -13.137,6.116 -20.5,6.5 3.388,-2.786 6.054,-6.119 8,-10 -3.374,1.846 -7.04,3.512 -11,5 -12.979998,1.43 -23.479998,-3.07 -31.500001,-13.5 -8.794,-11.503 -12.46,-24.503 -11,-39 0.315,-3.136 1.482,-5.803 3.5,-8 19.645003,12.99 40.312001,24.157 62.000001,33.5 2.93,1.318 5.93,1.985 9,2 -20.885,-13.557 -38.384998,-30.39 -52.499998,-50.5 13.513,9.727 28.679998,14.894 45.499998,15.5 28.702,3.049 56.702,0.049 84,-9 12.058,-6.885 24.391,-7.219 37,-1 8.664,4.333 16.497,9.833 23.5,16.5 2.555,20.235 -0.445,39.568 -9,58 -0.044,-2.975 0.123,-5.975 0.5,-9 z"
     id="path16" /><path
     fill="#383838"
     d="m 222.00175,204.00003 c 13.297,2.648 24.964,8.482 35,17.5 -8.763,-2.775 -17.763,-5.108 -27,-7 -4.643,-0.998 -9.31,-1.332 -14,-1 6.46,3.064 12.793,6.397 19,10 -10.937,-1.562 -21.937,-2.562 -33,-3 4.248,2.243 7.914,5.243 11,9 -6.675,-2.587 -13.675,-4.42 -21,-5.5 -1.333,0.167 -2.667,0.333 -4,0.5 2.653,1.655 4.986,3.655 7,6 -6.797,-1.576 -13.63,-3.409 -20.5,-5.5 -0.5,0.333 -1,0.667 -1.5,1 2.92,1.722 4.753,4.055 5.5,7 -6.268,-3.419 -12.768,-5.419 -19.5,-6 1.482,1.983 3.149,3.816 5,5.5 -0.333,0.167 -0.667,0.333 -1,0.5 -9.419,-6.08 -19.752,-8.58 -31,-7.5 -7.529,-1.732 -14.862,-4.065 -22,-7 32.079,7.265 63.746,5.599 95,-5 6.02,-2.673 11.687,-5.84 17,-9.5 z"
     id="path19" /><path
     fill="#e9e9e9"
     d="m 844.00175,150.00003 c 11.854,19.444 15.687,40.444 11.5,63 -3.56,8.121 -7.893,15.788 -13,23 -9.984,11.151 -20.484,21.818 -31.5,32 -0.333,-0.167 -0.667,-0.333 -1,-0.5 9.051,-10.586 16.218,-22.419 21.5,-35.5 -1.44,6.144 -3.606,12.144 -6.5,18 0.346,1.196 0.846,1.196 1.5,0 7.561,-11.456 13.228,-23.789 17,-37 1.19,3.881 1.857,7.881 2,12 2.219,-3.771 3.885,-7.771 5,-12 3.593,-21.653 1.427,-42.653 -6.5,-63 z"
     id="path22" /><path
     fill="#3b3b3b"
     d="m 450.00175,264.00003 c 1.238,4.931 0.904,9.931 -1,15 3.16,4.002 6.16,8.169 9,12.5 -0.5,0.167 -1,0.333 -1.5,0.5 -5.103,-2.798 -9.936,-5.965 -14.5,-9.5 3.625,-5.75 6.292,-11.917 8,-18.5 z"
     id="path24" /><path
     fill="#414141"
     d="m 398.00175,179.00003 c 0.739,-0.131 1.406,0.036 2,0.5 -3.364,6.387 -7.697,12.053 -13,17 -1.555,1.289 -3.221,1.956 -5,2 5.924,-6.083 11.257,-12.583 16,-19.5 z"
     id="path26" /><path
     fill="#363536"
     d="m 481.00175,162.00003 c -0.283,-0.789 -0.783,-1.456 -1.5,-2 -2.172,1.085 -4.172,2.419 -6,4 -0.399,-0.228 -0.565,-0.562 -0.5,-1 4.081,-3.886 8.748,-7.052 14,-9.5 -9.087,0.03 -16.754,3.364 -23,10 -0.948,0.483 -1.948,0.649 -3,0.5 -0.365,-3.125 -1.198,-6.125 -2.5,-9 -3.973,-3.818 -8.306,-7.151 -13,-10 -0.667,0.667 -0.667,1.333 0,2 5.878,5.422 9.378,12.089 10.5,20 -3.688,0.672 -7.355,1.505 -11,2.5 5.775,0.689 11.442,0.189 17,-1.5 -0.251,1.67 -0.918,3.17 -2,4.5 1.558,0.21 2.891,0.71 4,1.5 -2.666,0.433 -5.332,0.933 -8,1.5 4.108,2.116 8.441,3.783 13,5 -2.667,0.333 -5.333,0.667 -8,1 2.667,1.667 5.333,3.333 8,5 1.196,0.654 1.196,1.154 0,1.5 -8.216,-3.461 -16.55,-6.628 -25,-9.5 -1.444,-0.781 -2.777,-0.614 -4,0.5 5.667,4.167 11.333,8.333 17,12.5 10.179,11.011 20.512,21.845 31,32.5 -7.554,-0.638 -14.554,-3.304 -21,-8 2.882,5.844 6.549,11.678 11,17.5 -2.972,-0.052 -5.805,-0.886 -8.5,-2.5 -1.257,0.35 -1.591,1.017 -1,2 4.615,5.236 10.115,9.403 16.5,12.5 -2.796,-0.097 -5.463,-0.93 -8,-2.5 -1.196,0.346 -1.196,0.846 0,1.5 7.056,4.577 14.723,6.243 23,5 4.426,-1.041 8.759,-2.041 13,-3 -3.872,4.104 -8.539,6.938 -14,8.5 1.864,1.493 4.03,2.16 6.5,2 3.827,-0.739 7.66,-0.906 11.5,-0.5 -7.935,5.136 -16.602,6.803 -26,5 -2.344,-1.028 -4.677,-1.694 -7,-2 2.58,3.158 4.913,6.492 7,10 -8.233,-3.882 -16.066,-8.716 -23.5,-14.5 3.912,7.823 7.912,15.823 12,24 1.314,2.589 1.981,5.256 2,8 -10.406,-9.451 -20.906,-18.784 -31.5,-28 -2.818,5.636 -5.651,11.302 -8.5,17 -9.779,14.143 -23.279,21.976 -40.5,23.5 9.827,-8.556 16.993,-18.723 21.5,-30.5 -1.873,2.209 -4.04,4.042 -6.5,5.5 -16.381,9.145 -33.714,11.811 -52,8 11.784,-5.056 22.784,-11.389 33,-19 -8.886,1.809 -17.886,3.309 -27,4.5 -3.95,0.293 -7.616,-0.54 -11,-2.5 13.644,-2.985 25.978,-8.651 37,-17 -7.904,2.309 -15.904,4.309 -24,6 5.272,-2.941 10.272,-6.274 15,-10 5.398,-5.569 8.898,-12.069 10.5,-19.5 -2.795,1.793 -5.295,3.96 -7.5,6.5 -0.667,0.667 -1.333,0.667 -2,0 1.919,-6.838 4.919,-13.172 9,-19 -9.459,3.564 -18.459,7.897 -27,13 10.216,-11.377 20.216,-22.877 30,-34.5 -0.667,-0.667 -1.333,-1.333 -2,-2 2.683,-4.55 4.683,-9.384 6,-14.5 -10.803,0.395 -20.637,4.229 -29.5,11.5 -0.667,-1 -0.667,-2 0,-3 2.412,-4.416 5.578,-8.249 9.5,-11.5 -5.744,1.539 -11.078,4.205 -16,8 -1.901,2.613 -4.235,4.28 -7,5 1.571,-3.804 2.738,-7.638 3.5,-11.5 -5.18,2.703 -10.68,3.536 -16.5,2.5 -6.191,-2.73 -12.524,-5.063 -19,-7 -3.652,-0.499 -7.318,-0.665 -11,-0.5 2.805,-0.819 5.805,-1.319 9,-1.5 -1.793,-2.846 -3.627,-3.012 -5.5,-0.5 -5.563,-1.587 -5.729,-3.42 -0.5,-5.5 -2.018,-0.505 -4.018,-1.005 -6,-1.5 4.481,-1.148 9.148,-1.315 14,-0.5 5.781,2.057 11.447,4.39 17,7 7.257,2.676 13.924,1.676 20,-3 -12.248,-1.707 -22.415,-7.207 -30.5,-16.5 -0.667,-0.667 -0.667,-1.333 0,-2 4.589,3.96 9.922,5.96 16,6 9.499,-1.833 18.999,-3.666 28.5,-5.5 -6.501,-5.497 -9.834,-12.331 -10,-20.5 9.112,7.055 19.112,12.221 30,15.5 -7.292,-5.75 -10.959,-13.25 -11,-22.5 14.466,6.23 28.799,13.063 43,20.5 1.879,0.063 3.713,-0.437 5.5,-1.5 12.013,2.044 21.346,8.044 28,18 11.299,-7.015 23.465,-8.849 36.5,-5.5 3.527,0.951 6.86,2.284 10,4 -11.065,0.855 -21.398,4.022 -31,9.5 z"
     id="path28" /><path
     fill="#ececec"
     d="m 430.00175,246.00003 c 0.543,0.06 0.876,0.393 1,1 -8.117,15.559 -20.783,25.059 -38,28.5 13.245,-6.908 25.079,-15.741 35.5,-26.5 0.513,-1.027 1.013,-2.027 1.5,-3 z"
     id="path29" /><path
     fill="#efeeee"
     d="m 431.00175,212.00003 c 1.098,1.101 1.265,2.434 0.5,4 -3.918,11.007 -9.751,20.84 -17.5,29.5 1.779,-0.044 3.445,-0.711 5,-2 4.41,-3.621 8.91,-7.121 13.5,-10.5 -3.691,6.358 -8.858,11.525 -15.5,15.5 -6.099,3.559 -12.433,6.226 -19,8 8.538,-8.869 16.704,-18.036 24.5,-27.5 3.904,-5.142 6.738,-10.809 8.5,-17 z"
     id="path30" /><path
     fill="#efeeee"
     d="m 444.00175,231.00003 c 1.294,0.79 2.461,1.79 3.5,3 5.856,8.729 10.856,17.729 15,27 -4.616,-2.282 -8.283,-5.616 -11,-10 -3.354,-6.369 -5.854,-13.036 -7.5,-20 z"
     id="path31" /><path
     fill="#ededed"
     d="m 442.00175,240.00003 c 2.578,6.87 2.411,13.87 -0.5,21 -3.231,5.899 -7.231,11.232 -12,16 5.219,-11.827 9.385,-24.161 12.5,-37 z"
     id="path32" /><path
     fill="#eeedee"
     d="m 440.00175,215.00003 c 4.054,4.412 7.887,9.079 11.5,14 7.526,6.862 15.026,13.695 22.5,20.5 -3.702,-0.176 -7.035,-1.51 -10,-4 -9.826,-8.866 -17.826,-19.032 -24,-30.5 z"
     id="path33" /><path
     fill="#efeeef"
     d="m 426.00175,196.00003 c -3.307,15.105 -10.307,28.605 -21,40.5 0.667,0.667 1.333,0.667 2,0 9.298,-8.958 17.464,-18.791 24.5,-29.5 -0.374,2.775 -1.374,5.442 -3,8 -5.044,8.051 -11.211,15.217 -18.5,21.5 -2.938,2.257 -6.271,3.424 -10,3.5 1.932,-5.869 4.432,-11.536 7.5,-17 6.671,-8.682 12.837,-17.682 18.5,-27 z"
     id="path34" /><path
     fill="#e9e9e9"
     d="m 441.00175,199.00003 c 9.717,6.882 18.717,14.715 27,23.5 -1.408,0.315 -2.741,-0.018 -4,-1 -6.469,-5.468 -12.636,-11.301 -18.5,-17.5 3.344,7.054 8.011,13.387 14,19 2.883,4.473 4.383,9.14 4.5,14 -10.113,-11.129 -17.779,-23.796 -23,-38 z"
     id="path36" /><path
     fill="#eeeced"
     d="m 421.00175,195.00003 c 0.597,0.235 0.93,0.735 1,1.5 -1.287,2.071 -2.453,4.238 -3.5,6.5 -6.59,6.691 -13.423,13.025 -20.5,19 -0.333,-0.333 -0.667,-0.667 -1,-1 1.361,-1.528 2.528,-3.195 3.5,-5 7.707,-6.206 14.54,-13.206 20.5,-21 z"
     id="path37" /><path
     fill="#f1eff0"
     d="m 420.00175,177.00003 c 1.052,-0.149 2.052,0.017 3,0.5 -5.709,6.04 -11.043,12.374 -16,19 6.693,-1.931 12.859,-5.097 18.5,-9.5 -0.546,2.593 -2.046,4.76 -4.5,6.5 -9.092,6.377 -18.758,11.377 -29,15 7.742,-11.909 17.076,-22.409 28,-31.5 z"
     id="path38" /><path
     fill="#eeeeee"
     d="m 444.00175,185.00003 c 0.973,0.487 1.973,0.987 3,1.5 9.031,8.696 17.697,17.696 26,27 3.49,2.911 7.156,5.578 11,8 -5.109,-1.221 -9.775,-3.554 -14,-7 -10.014,-8.835 -18.681,-18.668 -26,-29.5 z"
     id="path39" /><path
     fill="#dadada"
     d="m 416.00175,170.00003 c 3.018,-0.165 6.018,0.002 9,0.5 0.808,0.308 1.475,0.808 2,1.5 -5.93,1.903 -11.93,2.237 -18,1 2.375,-1.16 4.708,-2.16 7,-3 z"
     id="path40" /><path
     fill="#e8e8e8"
     d="m 390.00175,160.00003 c 2.747,-0.313 5.414,0.02 8,1 -8.43,2.523 -16.43,5.689 -24,9.5 4.611,-4.792 9.944,-8.292 16,-10.5 z"
     id="path41" /><path
     fill="#ededed"
     d="m 410.00175,162.00003 c 3.875,-0.415 7.542,0.085 11,1.5 -4.031,0.481 -8.031,1.147 -12,2 -6.456,2.37 -12.789,4.703 -19,7 5.503,-5.916 12.17,-9.416 20,-10.5 z"
     id="path42" /><path
     fill="#e7e7e7"
     d="m 374.00175,150.00003 c 8.185,-0.55 16.185,0.284 24,2.5 -12.562,0.528 -12.895,1.862 -1,4 -0.667,0.333 -1.333,0.667 -2,1 -11,0.667 -22,0.667 -33,0 -1.124,-0.249 -2.124,-0.749 -3,-1.5 5.408,-1.241 10.408,-3.241 15,-6 z"
     id="path43" /><path
     fill="#e7e7e7"
     d="m 381.00175,139.00003 c 10.82,2.372 20.82,7.206 30,14.5 -10.826,-3.005 -20.826,-7.838 -30,-14.5 z"
     id="path44" /><path
     fill="#f2f2f2"
     d="m 397.00175,127.00003 c 13.613,7.141 27.28,14.308 41,21.5 4.511,3.237 7.345,7.404 8.5,12.5 -4.467,-4.846 -9.633,-8.346 -15.5,-10.5 1.667,1.667 3.333,3.333 5,5 -0.333,0.167 -0.667,0.333 -1,0.5 -8,-5 -16,-10 -24,-15 -0.333,0.167 -0.667,0.333 -1,0.5 3.632,2.63 6.965,5.63 10,9 -0.667,0.667 -1.333,0.667 -2,0 -8.656,-6.482 -15.656,-14.316 -21,-23.5 z"
     id="path45" /><path
     fill="#e6e6e6"
     d="m 246.00175,46.000025 c 5,0 10,0 15,0 0.219,1.175 -0.114,2.175 -1,3 -5.327,2.1258 -10.66,4.1258 -16,6 -1.196,-0.346 -1.196,-0.846 0,-1.5 2.449,-0.7246 4.783,-1.7246 7,-3 -1,-0.1667 -2,-0.3333 -3,-0.5 -7.493,1.2111 -14.827,2.7111 -22,4.5 6.393,-3.7338 13.06,-6.5671 20,-8.5 z"
     id="path46" /><path
     fill="#f8f8f8"
     d="m 260.00175,15.000025 c 1.373,-0.1567 2.707,0.01 4,0.5 -56.928,20.8776 -105.428,54.044 -145.5,99.500005 1.667,-5.333 3.333,-10.667 5,-16.000005 -9.697,12.063005 -17.364,25.396005 -23,40.000005 1.335,-10.012 2.668,-20.012 4,-30 -9.049998,17.815 -15.715998,36.482 -19.999998,56 -1.756,-8.578 -2.756,-17.245 -3,-26 -1.371,3.16 -2.371,6.494 -3,10 -0.519,9.365 -0.519,18.698 0,28 -1.18,-3.717 -2.513,-7.384 -4,-11 -0.779,9.385 0.721,18.385 4.5,27 -1.561,0.847 -3.061,0.514 -4.5,-1 -4.208003,-4.085 -6.541003,-9.085 -7.000003,-15 -1.834,-9.976 -2.5,-19.976 -2,-30 -3.652,6.621 -6.318,13.621 -8,21 -1.521,-21.6 4.312,-40.933 17.500003,-58 -7.337003,4.16 -13.504003,10.16 -18.500003,18 -0.654,1.196 -1.154,1.196 -1.5,0 7.854,-15.031 18.187003,-28.198005 31.000003,-39.500005 22.711998,-19.515 47.711998,-35.6818 74.999998,-48.5 1.196,0.3457 1.196,0.8457 0,1.5 -27.381,15.041 -51.548,34.207 -72.499998,57.5 -0.667,0.667 -0.667,1.333005 0,2.000005 34.153998,-27.766005 71.653998,-50.265805 112.499998,-67.500005 19.566,-6.9134 39.233,-13.0801 59,-18.5 z"
     id="path48" /><path
     fill="#f8f8f8"
     d="m 787.00175,141.00003 c 0.131,-0.876 -0.202,-1.543 -1,-2 -0.966,1.896 -1.299,3.896 -1,6 -0.413,6.815 -1.58,13.482 -3.5,20 -3.537,-19.944 -9.87,-38.944 -19,-57 1.371,9.604 2.371,19.271 3,29 -5.617,-14.575 -13.284,-27.908 -23,-40.000005 1.721,5.774005 3.721,11.440005 6,17.000005 -41.482,-46.800005 -91.982,-79.967105 -151.5,-99.500005 49.005,7.7594 93.172,26.5928 132.5,56.5 0.667,-0.667 0.667,-1.333 0,-2 -15.786,-15.9728 -33.62,-29.1394 -53.5,-39.5 -1.196,-0.6543 -1.196,-1.1543 0,-1.5 12.16,6.2458 24.16,12.7458 36,19.5 14.496,9.749 29.163,19.249 44,28.5 0.333,-0.167 0.667,-0.333 1,-0.5 -9.455,-9.795 -19.789,-18.462 -31,-26 3.447,0.7121 6.781,2.0455 10,4 13.389,9.217 26.056,19.384 38,30.5 4.645,-3.477 9.145,-7.144 13.5,-11 -2.595,4.932 -6.095,9.432 -10.5,13.5 13.903,9.993 24.903,22.493005 33,37.500005 -3.466,-2.948 -7.133,-6.448 -11,-10.5 -2.124,-1.122 -3.957,-2.622 -5.5,-4.5 1.751,4.145 4.084,8.145 7,12 7.365,14.823 10.365,30.49 9,47 -1.415,-6.997 -3.748,-13.664 -7,-20 -0.677,11.418 -2.011,22.752 -4,34 -1.858,5.195 -5.192,9.195 -10,12 2.262,-7.406 3.762,-15.073 4.5,-23 -0.167,-2 -0.333,-4 -0.5,-6 -1.333,3.333 -2.667,6.667 -4,10 1.096,-11.407 0.596,-22.74 -1.5,-34 z"
     id="path49" /><path
     fill="#f3f3f3"
     d="m 727.00175,410.00003 c -10.478,-10.268 -21.478,-20.101 -33,-29.5 -7.667,-7.667 -15.333,-15.333 -23,-23 -14.246,-10.493 -30.246,-14.827 -48,-13 -7.527,5.694 -15.194,11.194 -23,16.5 -1.114,-1.223 -1.281,-2.556 -0.5,-4 5.126,-7.46 11.293,-13.96 18.5,-19.5 18.565,-1.775 35.565,2.558 51,13 22.924,16.923 43.257,36.59 61,59 -0.948,0.483 -1.948,0.649 -3,0.5 z"
     id="path51" /><path
     fill="#f6f6f6"
     d="m 292.00175,357.00003 c 9.256,1.295 17.59,4.795 25,10.5 8.226,7.227 15.393,15.393 21.5,24.5 0.982,1.259 1.315,2.592 1,4 -11.719,-14.28 -26.885,-22.447 -45.5,-24.5 -5.854,-0.778 -11.52,-0.445 -17,1 0.96,-1.419 1.793,-2.919 2.5,-4.5 3.958,-4.037 8.124,-7.704 12.5,-11 z"
     id="path53" /><path
     fill="#f6f6f6"
     d="m 565.00175,357.00003 c 8.171,1.679 14.671,6.012 19.5,13 0.667,1 0.667,2 0,3 -18.187,-2.915 -35.02,0.918 -50.5,11.5 -3.869,3.534 -7.369,7.367 -10.5,11.5 8.443,-18.606 22.277,-31.606 41.5,-39 z"
     id="path54" /><path
     fill="#f4f4f4"
     d="m 230.00175,337.00003 c 5.79,-0.404 11.456,0.096 17,1.5 7.019,5.839 12.685,12.673 17,20.5 -0.333,0.667 -0.667,1.333 -1,2 -7.806,-5.306 -15.473,-10.806 -23,-16.5 -17.962,-1.788 -33.962,2.879 -48,14 -18.288,18.83 -37.288,35.997 -57,51.5 19.845,-28.352 44.845,-50.852 75,-67.5 6.618,-2.485 13.285,-4.318 20,-5.5 z"
     id="path55" /><path
     fill="#e9e9e9"
     d="m 388.00175,367.00003 c -3.615,13.572 -9.782,26.238 -18.5,38 0.361,-3.424 1.361,-6.758 3,-10 4.432,-9.875 9.599,-19.209 15.5,-28 z"
     id="path56" /><path
     fill="#e9e9e9"
     d="m 473.00175,368.00003 c 0.996,-0.086 1.829,0.248 2.5,1 6.786,11.568 12.453,23.568 17,36 -8.599,-11.197 -15.099,-23.53 -19.5,-37 z"
     id="path57" /><path
     fill="#f3f3f3"
     d="m 287.00175,379.00003 c 2.797,2.295 5.464,4.795 8,7.5 3.892,1.64 7.892,2.973 12,4 -2.333,0.333 -4.667,0.667 -7,1 5.441,3.591 11.441,5.591 18,6 -6.084,2.174 -12.084,1.841 -18,-1 -6.909,-4.055 -11.243,-9.889 -13,-17.5 z"
     id="path58" /><path
     fill="#eaeaea"
     d="m 575.00175,379.00003 c 0.739,-0.131 1.406,0.036 2,0.5 -4.777,12.114 -13.61,18.947 -26.5,20.5 -2.47,0.16 -4.636,-0.507 -6.5,-2 6.703,-1.092 13.036,-3.259 19,-6.5 -2.333,-0.333 -4.667,-0.667 -7,-1 7.965,-1.308 14.298,-5.142 19,-11.5 z"
     id="path59" /><path
     fill="#f6f6f6"
     d="m 203.00175,391.00003 c 0.739,-0.131 1.406,0.036 2,0.5 -7.351,9.316 -13.685,18.816 -19,28.5 14.406,-7.285 28.573,-14.952 42.5,-23 -3.077,7.152 -6.41,14.152 -10,21 6.364,-4.529 12.864,-8.863 19.5,-13 0.333,0.333 0.667,0.667 1,1 -1.887,2.653 -3.387,5.319 -4.5,8 7.586,-4.876 15.086,-9.876 22.5,-15 0.333,0.167 0.667,0.333 1,0.5 -4.576,8.638 -8.41,17.472 -11.5,26.5 6.333,-7.667 13.333,-14.667 21,-21 0.667,0.667 0.667,1.333 0,2 -7.167,10.333 -14.333,20.667 -21.5,31 -4.283,0.992 -8.616,1.326 -13,1 -1.667,-4.667 -3.333,-9.333 -5,-14 -11.19,0.426 -19.856,5.259 -26,14.5 -3.795,0.837 -7.461,0.504 -11,-1 3.333,-0.333 6.667,-0.667 10,-1 1.779,-3.056 3.446,-6.223 5,-9.5 -6.642,-0.831 -13.309,-1.331 -20,-1.5 -12.884,-3.961 -25.718,-8.128 -38.5,-12.5 -6.127,6.127 -12.294,12.294 -18.5,18.5 -0.667,0.667 -1.333,0.667 -2,0 4.167,-6.167 8.333,-12.333 12.5,-18.5 2.205,-2.54 4.705,-4.707 7.5,-6.5 10.81,-5.076 21.477,-10.076 32,-15 -3.531,6.208 -6.031,12.708 -7.5,19.5 11.168,-6.155 21.668,-13.155 31.5,-21 z"
     id="path60" /><path
     fill="#f7f7f7"
     d="m 577.00175,392.00003 c 0.303,4.145 0.47,8.479 0.5,13 0.249,-1.124 0.749,-2.124 1.5,-3 4.641,11.102 2.308,20.269 -7,27.5 -6.546,4.96 -13.879,7.294 -22,7 -1.41,-0.368 -2.41,-1.201 -3,-2.5 2.438,-3.942 5.438,-7.442 9,-10.5 -6.564,1.314 -13.23,1.98 -20,2 -19.273,-11.06 -18.44,-12.893 2.5,-5.5 5.93,-0.92 11.43,-2.92 16.5,-6 -8.037,-2.519 -15.704,-5.853 -23,-10 1.333,-0.333 2.667,-0.667 4,-1 13.869,4.361 26.536,2.194 38,-6.5 1.383,-1.271 2.383,-2.771 3,-4.5 z"
     id="path61" /><path
     fill="#f8f8f8"
     d="m 727.00175,410.00003 c -17.97,6.751 -36.303,12.751 -55,18 1.52,2.162 2.52,4.495 3,7 -4.805,1.061 -9.639,2.061 -14.5,3 -0.833,-0.333 -1.667,-0.667 -2.5,-1 -2.593,-5.523 -5.427,-10.857 -8.5,-16 -3.822,5.615 -6.989,11.615 -9.5,18 -7.311,1.165 -14.644,1.331 -22,0.5 -8,-11.333 -16,-22.667 -24,-34 0.667,-0.667 1.333,-0.667 2,0 7.167,5.833 13.667,12.333 19.5,19.5 -2.981,-8.412 -6.481,-16.745 -10.5,-25 0.333,-0.333 0.667,-0.667 1,-1 7.383,5.603 15.05,10.436 23,14.5 -2.498,-2.448 -3.998,-5.281 -4.5,-8.5 6.758,3.961 13.258,8.295 19.5,13 -1.9,-5.45 -4.733,-10.783 -8.5,-16 -1.301,-1.902 -1.968,-3.902 -2,-6 14.3,9.064 29.134,16.898 44.5,23.5 -5.78,-8.78 -11.946,-17.28 -18.5,-25.5 -0.688,-0.832 -0.521,-1.498 0.5,-2 10.699,7.197 21.532,14.197 32.5,21 -1.186,-7.047 -3.686,-13.713 -7.5,-20 0.333,-0.333 0.667,-0.667 1,-1 12.833,7.917 26.5,13.917 41,18 z"
     id="path62" /><path
     fill="#f7f7f7"
     d="m 284.00175,392.00003 c 5.31,5.66 11.644,9.826 19,12.5 9.063,0.462 18.063,0.128 27,-1 0.333,0.333 0.667,0.667 1,1 -7.921,4.196 -16.255,7.196 -25,9 5.225,3.277 10.891,5.444 17,6.5 6.398,-1.642 12.731,-3.142 19,-4.5 -5.205,4.103 -10.872,7.437 -17,10 -6.639,0.591 -12.972,-0.575 -19,-3.5 -0.333,0.167 -0.667,0.333 -1,0.5 2.5,2.5 5,5 7.5,7.5 2.533,4.476 1.199,6.81 -4,7 -11.965,-1.644 -20.965,-7.644 -27,-18 -0.565,-5.748 -0.065,-11.415 1.5,-17 0.692,0.525 1.192,1.192 1.5,2 0.694,-4.054 0.527,-8.054 -0.5,-12 z"
     id="path63" /><path
     fill="#f8f8f8"
     d="m 584.00175,437.00003 c 1.942,4.556 2.608,9.556 2,15 1.468,17.101 -3.699,31.767 -15.5,44 -0.822,-2.288 -1.489,-4.622 -2,-7 -0.517,3.42 -1.35,6.753 -2.5,10 -0.667,-7.333 -1.333,-14.667 -2,-22 -2.299,6.131 -5.633,11.631 -10,16.5 -1,0.667 -2,0.667 -3,0 -10.53,-8.866 -17.697,-20.033 -21.5,-33.5 -0.926,19.553 4.74,36.887 17,52 0.661,10.368 -1.005,20.368 -5,30 -0.925,-7.523 -2.258,-7.189 -4,1 -3.168,-17.668 -9.668,-34.001 -19.5,-49 0.167,-0.333 0.333,-0.667 0.5,-1 4.435,5.191 9.101,10.191 14,15 -11.754,-23.922 -20.754,-48.922 -27,-75 3.465,4.467 7.298,8.633 11.5,12.5 0.667,0.667 1.333,0.667 2,0 -3.885,-5.823 -6.718,-11.99 -8.5,-18.5 3.297,2.295 6.297,4.962 9,8 -1.426,-5.285 -3.092,-10.618 -5,-16 -0.667,-1.333 -0.667,-2.667 0,-4 8.139,6.916 13.805,15.583 17,26 -0.538,-3.294 -0.871,-6.627 -1,-10 2.254,3.507 4.254,7.173 6,11 0.253,-2.7 0.253,-5.367 0,-8 3.415,7.326 5.749,14.992 7,23 0.326,-4.03 0.326,-8.03 0,-12 2.196,4.92 4.196,9.92 6,15 0.492,-5.051 0.492,-10.051 0,-15 4.937,5.945 8.604,12.611 11,20 0.5,-6.658 0.666,-13.325 0.5,-20 7.938,-1.868 15.605,-4.535 23,-8 z"
     id="path64" /><path
     fill="#f8f8f8"
     d="m 347.00175,415.00003 c 0.997,-0.03 1.664,0.47 2,1.5 -2.534,6.945 -5.034,13.778 -7.5,20.5 3.367,-3.703 7.034,-7.036 11,-10 -2.484,5.977 -5.317,11.977 -8.5,18 0.167,0.333 0.333,0.667 0.5,1 4.279,-3.789 8.279,-7.789 12,-12 -6.644,25.937 -15.644,50.937 -27,75 5.803,-5.624 11.136,-11.624 16,-18 -3.912,7.823 -7.912,15.823 -12,24 -3.299,8.864 -6.132,17.864 -8.5,27 -0.927,-1.613 -1.761,-3.279 -2.5,-5 -0.333,1.333 -0.667,2.667 -1,4 -4.363,-9.535 -6.029,-19.535 -5,-30 11.545,-14.302 16.878,-30.635 16,-49 -4.048,12.368 -10.881,22.868 -20.5,31.5 -2.201,0.825 -4.034,0.325 -5.5,-1.5 -3.099,-4.625 -5.432,-9.625 -7,-15 -0.655,7.689 -1.489,15.355 -2.5,23 -1.593,-3.799 -2.426,-7.799 -2.5,-12 -0.14,2.543 -0.806,4.877 -2,7 -5.115,-5.784 -9.448,-12.118 -13,-19 -2.314,-13.279 -3.148,-26.612 -2.5,-40 7.609,4.142 15.609,7.142 24,9 -0.304,6.077 0.196,12.077 1.5,18 2.563,-6.128 5.897,-11.795 10,-17 -0.476,4.617 -0.476,9.283 0,14 2.275,-6.826 4.942,-13.493 8,-20 -1.781,6.157 -2.448,12.49 -2,19 1.099,-9.467 4.265,-18.133 9.5,-26 0.502,-1.021 1.168,-1.188 2,-0.5 -1.638,3.33 -2.138,6.83 -1.5,10.5 4.438,-10.563 10.605,-19.896 18.5,-28 z"
     id="path65" /><path
     fill="#f6f6f6"
     d="m 183.00175,458.00003 c -3.277,11.377 -6.777,23.044 -10.5,35 -27.795,37.602 -45.128,79.602 -52,126 -3,2.333 -6,4.667 -9,7 0.951,-26.473 6.951,-51.806 18,-76 15.055,-32.465 32.888,-63.131 53.5,-92 z"
     id="path67" /><path
     fill="#f4f4f4"
     d="m 654.00175,484.00003 c 9.299,11.239 18.132,22.906 26.5,35 2.763,5.145 4.263,10.645 4.5,16.5 -2.861,14.47 -5.527,28.97 -8,43.5 -1.536,-9.987 -3.036,-19.987 -4.5,-30 -0.333,0.667 -0.667,1.333 -1,2 -1.109,9.296 -1.776,18.63 -2,28 -0.476,6.86 -1.809,13.526 -4,20 0.997,-14.634 1.33,-29.301 1,-44 -0.301,-3.48 -1.135,-6.813 -2.5,-10 -1.907,4.406 -3.074,9.072 -3.5,14 -1.555,-9.968 -3.888,-19.635 -7,-29 2.092,3.181 4.425,6.181 7,9 -2.532,-10.603 -5.698,-21.103 -9.5,-31.5 0.167,-0.5 0.333,-1 0.5,-1.5 6.712,10.885 13.212,21.218 19.5,31 -3.972,-18.224 -9.639,-35.891 -17,-53 z"
     id="path68" /><path
     fill="#f6f6f6"
     d="m 691.00175,488.00003 c 11.997,9.83 22.83,20.83 32.5,33 8.241,29.446 11.908,59.446 11,90 -3.338,-2.508 -6.505,-5.175 -9.5,-8 1.149,-13.955 1.316,-27.955 0.5,-42 -1.132,-24.602 -11.466,-44.269 -31,-59 -1.738,-4.524 -2.905,-9.19 -3.5,-14 z"
     id="path69" /><path
     fill="#f3f3f3"
     d="m 178.00175,563.00003 c -0.163,2.357 0.003,4.69 0.5,7 1.188,-1.063 1.688,-2.397 1.5,-4 2.25,-11.25 5.416,-22.25 9.5,-33 -2.991,17.945 -5.991,35.945 -9,54 -3.918,-2.274 -8.085,-2.607 -12.5,-1 -0.333,-0.667 -0.667,-1.333 -1,-2 1.268,-8.174 2.601,-16.341 4,-24.5 -3.381,-9.237 -4.548,-18.737 -3.5,-28.5 4.539,-20.408 12.872,-39.074 25,-56 -12.004,27.984 -16.838,57.318 -14.5,88 z"
     id="path70" /><path
     fill="#f6f6f6"
     d="m 278.00175,500.00003 c 6.584,6.757 13.084,13.757 19.5,21 1.32,12.258 3.82,24.258 7.5,36 -0.346,1.196 -0.846,1.196 -1.5,0 -6.667,-8.667 -13.333,-17.333 -20,-26 1.366,13.866 3.7,27.533 7,41 -2,-2.667 -4,-5.333 -6,-8 0.155,2.311 0.155,4.644 0,7 -7.848,-10.709 -12.348,-22.709 -13.5,-36 1.547,-11.849 3.88,-23.516 7,-35 z"
     id="path71" /><path
     fill="#f6f6f6"
     d="m 584.00175,499.00003 c 4.969,13.821 7.136,28.154 6.5,43 -1.364,11.056 -5.697,20.723 -13,29 0.333,-2.333 0.667,-4.667 1,-7 -1.626,2.628 -3.626,4.961 -6,7 2.716,-13.251 5.05,-26.584 7,-40 -7.406,9.433 -14.906,18.099 -22.5,26 3.914,-11.736 6.748,-23.736 8.5,-36 4.3,-5.301 8.966,-10.301 14,-15 1.723,-2.217 3.223,-4.55 4.5,-7 z"
     id="path72" /><path
     fill="#f7f7f7"
     d="m 365.00175,507.00003 c 41.993,5.194 83.993,5.194 126,0 27.241,3.106 39.074,18.439 35.5,46 4.815,17.293 10.481,34.293 17,51 1.725,12.383 -3.441,20.217 -15.5,23.5 -4.277,0.955 -8.611,1.455 -13,1.5 -21.343,-2.724 -42.677,-5.557 -64,-8.5 -14,-0.667 -28,-0.667 -42,0 -21.008,2.918 -42.008,5.751 -63,8.5 -7.18,0.038 -13.846,-1.795 -20,-5.5 -6.637,-5.711 -8.804,-12.877 -6.5,-21.5 5.278,-13.558 10.278,-27.225 15,-41 1.141,-8.957 1.808,-17.957 2,-27 3.861,-15.029 13.361,-24.029 28.5,-27 z"
     id="path73" /><path
     fill="#343434"
     d="m 110.00175,516.00003 c 3.981,-0.073 5.647,1.927 5,6 -3.336,20.18 -10.502,38.846 -21.499998,56 -0.399,-19.487 3.268,-38.154 10.999998,-56 1.626,-2.305 3.46,-4.305 5.5,-6 z"
     id="path74" /><path
     fill="#353535"
     d="m 371.00175,518.00003 c 5.175,-0.228 10.175,0.605 15,2.5 6.667,3 13.333,6 20,9 6.431,0.504 12.765,0.171 19,-1 -1.849,1.093 -3.516,2.426 -5,4 1,0.333 2,0.667 3,1 -5.46,2.285 -11.127,2.951 -17,2 -9.451,-3.43 -19.118,-5.93 -29,-7.5 -9.753,0.036 -16.753,4.37 -21,13 1.29,0.908 2.623,0.741 4,-0.5 14.691,-2.636 23.357,3.364 26,18 -0.799,7.534 -3.132,14.534 -7,21 5.863,-1.174 10.03,-4.674 12.5,-10.5 1.558,-6.007 1.892,-12.007 1,-18 2.434,3.295 4.101,6.962 5,11 0.333,-3.667 0.667,-7.333 1,-11 1.591,3.267 3.091,6.6 4.5,10 0.894,-3.698 1.894,-7.365 3,-11 2.507,4.013 4.34,8.347 5.5,13 2.313,-5.293 5.146,-10.293 8.5,-15 0.829,4.967 1.329,9.967 1.5,15 1.623,-4.21 3.623,-8.21 6,-12 1.387,5.936 2.387,11.936 3,18 1.518,-5.964 2.852,-11.964 4,-18 2.186,4.214 4.186,8.547 6,13 0.147,-5.461 0.98,-10.794 2.5,-16 3.325,4.982 5.825,10.315 7.5,16 0.581,-5.259 2.415,-9.926 5.5,-14 0.816,4.052 1.816,8.052 3,12 1.052,-3.77 2.385,-7.436 4,-11 0.818,2.607 1.318,5.274 1.5,8 0.956,-2.877 2.289,-5.544 4,-8 -0.998,6.036 -0.665,12.036 1,18 2.556,6.245 7.056,9.745 13.5,10.5 -6.521,-8.586 -8.354,-18.086 -5.5,-28.5 7.191,-11.466 16.857,-14.133 29,-8 -2.147,-7.807 -7.314,-12.641 -15.5,-14.5 -4.667,-0.667 -9.333,-0.667 -14,0 -8.813,3.83 -17.98,5.997 -27.5,6.5 -4.253,0.058 -8.42,-0.442 -12.5,-1.5 -0.333,-0.333 -0.667,-0.667 -1,-1 6.308,0.017 6.641,-1.316 1,-4 5.558,1.187 11.225,1.52 17,1 6.699,-1.851 13.033,-4.518 19,-8 14.037,-6.032 25.87,-3.199 35.5,8.5 1.275,2.217 2.275,4.551 3,7 1.562,9.939 1.895,19.939 1,30 -2.001,9.826 -7.501,16.826 -16.5,21 -1.442,3.287 -0.775,6.12 2,8.5 1.333,0.667 2.667,0.667 4,0 1.667,-1.667 3.333,-3.333 5,-5 1.049,-0.492 2.049,-0.326 3,0.5 0.818,-2.607 1.318,-5.274 1.5,-8 2,2.667 4,5.333 6,8 0.045,-4.08 -0.288,-8.08 -1,-12 6.394,6.785 10.06,14.785 11,24 0.822,-2.288 1.489,-4.622 2,-7 7.758,16.698 2.591,25.364 -15.5,26 -18.297,-2.716 -36.631,-5.216 -55,-7.5 -22.022,-0.851 -44.022,-0.518 -66,1 -15.505,2.168 -31.005,4.335 -46.5,6.5 -15.218,-0.739 -20.218,-8.405 -15,-23 0.333,-0.667 0.667,-1.333 1,-2 0.667,2 1.333,4 2,6 0.994,-8.998 4.66,-16.665 11,-23 -0.649,3.946 -0.982,7.946 -1,12 1.25,-3.416 3.417,-6.083 6.5,-8 0.052,2.07 0.219,4.403 0.5,7 3.573,-0.835 6.073,0.665 7.5,4.5 6.435,0.65 8.768,-2.184 7,-8.5 -6.721,-3.221 -11.555,-8.221 -14.5,-15 -1.576,-11.275 -1.909,-22.608 -1,-34 2.307,-11.473 9.14,-18.473 20.5,-21 z"
     id="path75" /><path
     fill="#efefef"
     d="m 491.00175,545.00003 c 2.747,-0.313 5.414,0.02 8,1 -5.94,1.969 -11.273,4.969 -16,9 -0.908,-1.29 -0.741,-2.623 0.5,-4 2.114,-2.621 4.614,-4.621 7.5,-6 z"
     id="path76" /><path
     fill="#eeeeee"
     d="m 362.00175,545.00003 c 7.971,-1.18 13.971,1.653 18,8.5 -0.333,0.5 -0.667,1 -1,1.5 -5.081,-4.706 -11.081,-7.54 -18,-8.5 0.556,-0.383 0.889,-0.883 1,-1.5 z"
     id="path77" /><path
     style="clip-rule:evenodd;display:none;opacity:1;fill-rule:evenodd;image-rendering:optimizeQuality;shape-rendering:geometricPrecision;text-rendering:geometricPrecision"
     fill="#929292"
     d="m 154.00175,563.00003 c 0.667,1 1.333,2 2,3 0.188,1.603 -0.312,2.937 -1.5,4 -0.497,-2.31 -0.663,-4.643 -0.5,-7 z"
     id="path78" /><path
     fill="#efefef"
     d="m 504.00175,557.00003 c 4.672,9.81 2.005,17.31 -8,22.5 -3.628,1.316 -5.961,0.149 -7,-3.5 10.506,-2.02 15.506,-8.353 15,-19 z"
     id="path79" /><path
     fill="#ececec"
     d="m 358.00175,555.00003 c 0.246,2.793 0.413,5.793 0.5,9 2.176,7.172 7.009,10.506 14.5,10 -0.257,3.425 -2.09,5.425 -5.5,6 -7.853,-2.365 -11.687,-7.698 -11.5,-16 -0.051,-3.192 0.616,-6.192 2,-9 z"
     id="path80" /><path
     fill="#f3f3f3"
     d="m 636.00175,569.00003 c 4.973,13.24 9.973,26.573 15,40 -0.029,1.529 -0.696,2.696 -2,3.5 -2.5,1.833 -5,3.667 -7.5,5.5 -1.384,-16.396 -3.218,-32.73 -5.5,-49 z"
     id="path81" /><path
     fill="#eeeeee"
     d="m 280.00175,578.00003 c 3.648,2.642 7.315,5.309 11,8 5.514,10.689 10.68,21.356 15.5,32 -10.259,-12.419 -19.093,-25.752 -26.5,-40 z"
     id="path82" /><path
     fill="#ececec"
     d="m 581.00175,579.00003 c 0.739,-0.131 1.406,0.036 2,0.5 -7.993,14.321 -17.16,27.821 -27.5,40.5 5.002,-11.009 10.336,-22.009 16,-33 3.358,-2.531 6.524,-5.198 9.5,-8 z"
     id="path83" /><path
     fill="#fbfbfb"
     d="m 689.00175,589.00003 c 2.177,0.086 4.177,0.753 6,2 0.816,7.595 3.316,14.595 7.5,21 -0.268,-5.576 -1.101,-11.076 -2.5,-16.5 1.408,-0.315 2.741,0.018 4,1 28.54,20.098 56.873,40.431 85,61 -1.398,9.905 -3.231,19.739 -5.5,29.5 0.749,-8.326 1.416,-16.659 2,-25 -27,19.667 -54,39.333 -81,59 -1.314,-1.769 -2.147,-3.769 -2.5,-6 3.093,-5.508 5.593,-11.175 7.5,-17 -5.257,6.858 -10.257,13.858 -15,21 -6.611,-4.547 -13.444,-8.38 -20.5,-11.5 6.571,6.677 12.237,13.51 17,20.5 -17.706,-15.597 -35.873,-30.597 -54.5,-45 1.326,-5.324 2.659,-10.657 4,-16 -2.349,4.712 -5.183,9.045 -8.5,13 -7.644,-5.81 -15.144,-11.81 -22.5,-18 1.663,17.319 3.33,34.652 5,52 -1.815,-1.905 -3.815,-3.572 -6,-5 -2.667,-17.34 -5,-34.674 -7,-52 29.145,-22.807 58.312,-45.474 87.5,-68 z"
     id="path84" /><path
     fill="#fafafa"
     d="m 170.00175,591.00003 c 3.149,-0.289 6.149,0.211 9,1.5 27.896,22.196 56.062,44.029 84.5,65.5 0.667,16.667 0.667,33.333 0,50 -3.61,1.944 -6.943,4.277 -10,7 -0.167,-0.5 -0.333,-1 -0.5,-1.5 2.261,-15.78 3.761,-31.614 4.5,-47.5 -5.904,6.574 -12.404,12.408 -19.5,17.5 -19.667,14.833 -39.333,29.667 -59,44.5 -0.98,14.324 -1.813,28.657 -2.5,43 -3.048,-12.904 -5.714,-25.904 -8,-39 -5.456,-3.787 -10.623,-7.954 -15.5,-12.5 4.719,0.359 8.719,2.359 12,6 1.544,1.187 3.211,1.52 5,1 -6.706,-6.374 -13.706,-12.374 -21,-18 0.667,-0.667 1.333,-1.333 2,-2 9.767,-3.383 19.434,-7.049 29,-11 -11.18,0.668 -22.347,1.835 -33.5,3.5 -6.439,-2.272 -12.272,-5.605 -17.5,-10 -0.333,0.167 -0.667,0.333 -1,0.5 4.22,4.723 8.887,8.89 14,12.5 -1.574,1.131 -3.241,1.298 -5,0.5 -17.167,-13.167 -34.333,-26.333 -51.499998,-39.5 0.77,7.964 1.103,15.964 1,24 -3.316,-9.583 -5.483,-19.416 -6.5,-29.5 29.561998,-22.724 59.561998,-44.891 89.999998,-66.5 z"
     id="path85" /><path
     fill="#f1f1f1"
     d="m 422.00175,593.00003 c 0.06,-0.543 0.393,-0.876 1,-1 2.816,1.493 5.65,2.826 8.5,4 2.85,-1.174 5.684,-2.507 8.5,-4 0.333,0.333 0.667,0.667 1,1 -1.481,0.98 -2.815,2.147 -4,3.5 0.667,0.167 1.333,0.333 2,0.5 4.296,-1.386 8.63,-2.219 13,-2.5 -3.172,1.752 -6.172,3.752 -9,6 6.651,-0.383 13.318,-0.716 20,-1 -4.276,1.486 -8.609,2.819 -13,4 3.989,1.331 7.989,2.665 12,4 -20.667,0.667 -41.333,0.667 -62,0 4,-1.333 8,-2.667 12,-4 -4.38,-1.178 -8.713,-2.512 -13,-4 6.324,0.18 12.657,0.18 19,0 -2.828,-2.248 -5.828,-4.248 -9,-6 4.851,1.294 9.851,2.461 15,3.5 0.667,-0.167 1.333,-0.333 2,-0.5 -1.205,-1.376 -2.538,-2.542 -4,-3.5 z"
     id="path86" /><path
     fill="#323232"
     d="m 690.00175,594.00003 c 1.431,0.381 2.264,1.381 2.5,3 1.124,2.942 1.458,5.942 1,9 -3.532,-3.417 -4.698,-7.417 -3.5,-12 z"
     id="path87" /><path
     fill="#2e2e2e"
     d="m 683.00175,602.00003 c 1.175,-0.219 2.175,0.114 3,1 -1.414,2.71 -3.414,3.71 -6,3 1.024,-1.352 2.024,-2.685 3,-4 z"
     id="path88" /><path
     fill="#eaeaea"
     d="m 244.00175,598.00003 c 0.624,0.417 0.957,1.084 1,2 -2.401,10.874 -3.901,21.874 -4.5,33 -2.562,-1.846 -4.729,-4.013 -6.5,-6.5 3.766,-9.361 7.099,-18.861 10,-28.5 z"
     id="path89" /><path
     fill="#f5f5f5"
     d="m 411.00175,628.00003 c 20.751,-0.371 41.418,0.795 62,3.5 10.83,1.699 21.497,4.032 32,7 -10.295,8.294 -19.962,17.294 -29,27 -19.741,15.344 -41.408,18.677 -65,10 -4.493,-2.079 -8.826,-4.412 -13,-7 -9.601,-7.598 -18.601,-15.931 -27,-25 -3.002,-2.503 -6.335,-4.503 -10,-6 4.087,-1.956 8.42,-3.289 13,-4 12.436,-2.093 24.769,-3.926 37,-5.5 z"
     id="path90" /><path
     fill="#333333"
     d="m 438.00175,637.00003 c 2,0.667 4,1.333 6,2 -5.668,1.722 -11.335,3.556 -17,5.5 7.678,0.277 15.344,-0.056 23,-1 1.809,-2.409 4.142,-3.409 7,-3 -0.544,0.717 -1.211,1.217 -2,1.5 -0.543,0.06 -0.876,0.393 -1,1 11.982,0.999 23.982,1.332 36,1 0.739,-0.131 1.406,0.036 2,0.5 -20.873,25.142 -47.206,33.475 -79,25 -16.157,-5.726 -28.824,-15.726 -38,-30 0.405,-0.945 1.072,-1.612 2,-2 7.733,-1.771 15.566,-2.605 23.5,-2.5 12.507,0.605 25.007,1.271 37.5,2 z"
     id="path91" /><path
     fill="#373737"
     d="m 108.00175,645.00003 c -0.543,0.06 -0.876,0.393 -1,1 1.791,0.67 3.458,1.337 5,2 -3.963,0.572 -7.63,1.905 -11,4 3,0.667 6,1.333 9,2 -7.311,1.165 -14.643998,1.331 -21.999998,0.5 11.023,-8.333 22.688998,-15.333 34.999998,-21 -4.67,4.327 -9.67,8.16 -15,11.5 z"
     id="path94" /><path
     fill="#333333"
     d="m 718.77819,621.60923 c 5.36,3.349 2.98997,2.41316 7.62997,6.73116 -10.611,6.945 -31.89065,25.54981 -41.94665,33.27181 7.94836,0.79803 22.05375,4.47701 24.37172,6.10668 -2.07875,3.35921 -4.37426,7.58449 -6.94073,10.72693 -16.1891,-7.7505 -26.36765,-5.1637 -33.22479,-6.1836 -1.92541,-1.18166 -5.4917,-4.50891 -7.42551,-6.06619 z"
     id="path95" /><path
     fill="#efefef"
     d="m 572.00175,628.00003 c 0.597,0.235 0.93,0.735 1,1.5 -5.397,13.618 -10.063,27.451 -14,41.5 -2.614,0.205 -4.948,0.205 -7,0 6.405,-14.475 13.072,-28.809 20,-43 z"
     id="path97" /><path
     fill="#f0f0f0"
     d="m 291.00175,628.00003 c 8.298,13.597 15.298,27.931 21,43 -0.595,2.817 -1.928,5.15 -4,7 -4.875,-16.96 -10.542,-33.627 -17,-50 z"
     id="path98" /><path
     fill="#333333"
     d="m 178.56822,625.80782 c 13.47602,-6.44461 37.61229,1.27531 38.40178,19.01016 1.24696,28.01118 -33.96825,37.68205 -33.96825,37.68205 -26.73795,7.82222 -38.78778,-3.28605 -47,-28 2.532,-2.521 4.74882,-5.33217 8.5,-6.5 9.82963,17.18854 12.68715,24.44667 23.0072,23.40898 11.38994,-1.14528 14.3899,-1.74191 3.07366,-16.48857 -7.60816,-9.91451 -1.36685,-24.64001 7.98561,-29.11262 z"
     id="path100" /><path
     fill="#f7f7f7"
     d="m 200.19396,638.27734 c 8.1514,6.64279 1.36311,24.71734 -12.69221,20.72269 -6.88008,-1.95538 -9.62934,-8.09674 -9,-15 0.53214,-5.83703 9.17888,-15.92012 21.69221,-5.72269 z"
     id="path101" /><path
     fill="#fafafa"
     d="m 319.00175,808.00003 c -0.667,7.333 -1.333,14.667 -2,22 -0.796,-8.808 -2.296,-17.475 -4.5,-26 -10.079,-7.29 -20.246,-14.456 -30.5,-21.5 3.548,-1.941 7.214,-3.607 11,-5 -6,0 -12,0 -18,0 -15.764,-10.63 -31.598,-21.13 -47.5,-31.5 -2.499,0.316 -3.999,1.649 -4.5,4 1.499,10.984 2.832,21.984 4,33 -1,0 -2,0 -3,0 -1.136,-10.118 -2.97,-20.118 -5.5,-30 -0.667,-2.333 -0.667,-4.667 0,-7 30.241,-20.872 60.741,-41.372 91.5,-61.5 4.074,-3.035 7.574,-6.535 10.5,-10.5 5.866,3.018 11.699,6.184 17.5,9.5 23.333,15.333 46.667,30.667 70,46 -22.055,16.388 -44.388,32.388 -67,48 -3.069,1.846 -6.402,2.846 -10,3 -4.591,8.531 -6.925,17.698 -7,27.5 -1.667,0 -3.333,0 -5,0 z"
     id="path102" /><path
     fill="#fafafa"
     d="m 632.00175,751.00003 c 2.781,-1.323 5.447,-1.156 8,0.5 -1.619,0.236 -2.619,1.069 -3,2.5 -28.717,20.447 -57.55,40.78 -86.5,61 -1.095,11.992 -2.095,23.992 -3,36 -0.333,-12.333 -0.667,-24.667 -1,-37 -4,-3.333 -8,-6.667 -12,-10 -0.226,-4.387 -0.726,-8.721 -1.5,-13 -23.31,-17.988 -46.977,-35.488 -71,-52.5 29.494,-20.248 59.161,-40.248 89,-60 1.634,-0.494 3.301,-0.66 5,-0.5 0.28,2.888 -1.053,4.388 -4,4.5 -4.667,5.333 -9.333,10.667 -14,16 4.594,-1.88 8.761,-4.713 12.5,-8.5 0.305,2.057 0.305,4.057 0,6 1.92,-2.839 3.587,-5.839 5,-9 1.011,-0.837 2.178,-1.17 3.5,-1 -0.322,2.222 0.345,4.056 2,5.5 2.222,0.695 4.389,1.528 6.5,2.5 1.257,-0.35 1.591,-1.017 1,-2 -2.035,-1.74 -3.869,-3.574 -5.5,-5.5 0.263,-1.946 1.263,-2.612 3,-2 23.64,18.818 47.64,37.152 72,55 -8,-1 -16,-2 -24,-3 2.836,2.007 5.503,4.174 8,6.5 -1.165,1.084 -2.498,1.917 -4,2.5 3.711,0.175 7.378,0.675 11,1.5 -3.318,3.818 -6.818,7.485 -10.5,11 -0.688,0.832 -0.521,1.498 0.5,2 4.094,-3.441 8.427,-6.441 13,-9 z"
     id="path103" /><path
     fill="#373737"
     d="m 322.00175,678.00003 c 1.373,-0.157 2.707,0.01 4,0.5 5,3.833 10,7.667 15,11.5 -4.264,-0.908 -8.764,-2.242 -13.5,-4 -0.945,0.405 -1.612,1.072 -2,2 -0.752,7.594 -1.585,7.261 -2.5,-1 -5.547,4.129 -11.214,8.296 -17,12.5 -1.135,0.749 -2.135,0.583 -3,-0.5 5.303,-7.968 11.637,-14.968 19,-21 z"
     id="path104" /><path
     fill="#ededed"
     d="m 371.00175,677.00003 c 7.785,12.715 16.452,24.882 26,36.5 -5.867,-2.154 -11.033,-5.654 -15.5,-10.5 -3.236,-8.801 -6.736,-17.468 -10.5,-26 z"
     id="path105" /><path
     fill="#f5f5f5"
     d="m 491.00175,678.00003 c -4.814,14.694 -10.647,29.361 -17.5,44 -5.256,3.711 -10.422,7.545 -15.5,11.5 -2.288,0.418 -4.288,-0.249 -6,-2 -1.507,-0.837 -2.007,-2.004 -1.5,-3.5 15.608,-15.093 29.108,-31.759 40.5,-50 z"
     id="path106" /><path
     fill="#e9e9e9"
     d="m 630.00175,690.00003 c 0.624,0.417 0.957,1.084 1,2 -2.969,9.543 -5.469,19.21 -7.5,29 -1.556,-1.02 -2.722,-2.353 -3.5,-4 3.066,-9.125 6.399,-18.125 10,-27 z"
     id="path108" /><path
     fill="#3c3c3c"
     d="m 158.00175,706.00003 c 4.05,0.85 7.55,2.85 10.5,6 0.749,1.135 0.583,2.135 -0.5,3 -3,-1.833 -6,-3.667 -9,-5.5 -0.837,-1.011 -1.17,-2.178 -1,-3.5 z"
     id="path109" /><path
     fill="#dfdfdf"
     d="m 146.00175,710.00003 c 2.442,-0.146 3.109,0.687 2,2.5 -3.911,1.644 -7.911,2.644 -12,3 3.556,-1.608 6.889,-3.441 10,-5.5 z"
     id="path110" /><path
     fill="#e5e5e5"
     d="m 422.00175,705.00003 c 5.018,4.019 9.351,8.685 13,14 -2.728,1.44 -4.895,0.774 -6.5,-2 -2.446,-3.894 -4.612,-7.894 -6.5,-12 z"
     id="path111" /><path
     fill="#d3d3d3"
     d="m 741.00175,715.00003 c 0.487,-0.973 0.987,-1.973 1.5,-3 1.874,2.069 2.874,4.402 3,7 -0.876,-2.135 -2.376,-3.469 -4.5,-4 z"
     id="path112" /><path
     fill="#323232"
     d="m 599.50175,746.00003 c -3.026,2.526 -5.32594,3.77617 -8.63294,5.91617 -7.19558,-10.7624 3.44167,-12.27825 -11.96476,-26.30757 -6.00778,-5.47077 -17.25083,-0.99549 -23.46783,4.00451 4.37278,5.72594 15.44769,9.65805 15.85414,28.32877 0.0181,0.83095 -5.40666,30.52545 -35.28861,21.55812 -15.04104,-4.51369 -22.5289,-31.3961 -9.69648,-44.54117 3.05825,3.676 6.89504,7.4436 10.11927,10.09746 -13.67533,13.11215 4.34428,24.18346 8.51168,23.42889 4.11415,-0.74492 16.21441,-6.08352 14.02849,-16.33618 -2.21998,-10.41242 -8.95619,-14.32543 -20.30228,-8.53219 -4.28755,-3.65602 -5.85288,-5.08135 -10.5,-10 4.64897,-6.60153 14.44001,-9.96276 20.83932,-14.61681 21.70652,-16.57593 53.51616,-9.01876 50.5,27 z"
     id="path114" /><path
     fill="#a1a1a1"
     d="m 741.00175,715.00003 c -0.311,0.978 -0.978,1.645 -2,2 -0.538,5.673 -1.871,11.006 -4,16 0.609,-5.312 1.109,-10.646 1.5,-16 1.33,-1.082 2.83,-1.749 4.5,-2 z"
     id="path115" /><path
     fill="#333333"
     d="m 809.00175,720.00003 c 6.565,-1.078 8.732,1.589 6.5,8 -7.087,18.903 -17.254,35.903 -30.5,51 0.541,-22.606 8.541,-42.273 24,-59 z"
     id="path116" /><path
     fill="#eeeeee"
     d="m 88.001752,724.00003 c 1.845,10.734 4.011,21.401 6.5,32 29.510998,21.423 58.844998,43.089 87.999998,65 0.979,-8.641 1.646,-17.308 2,-26 1.565,5.588 2.732,11.254 3.5,17 11.773,-8.937 21.606,-19.604 29.5,-32 1.581,4.23 2.248,8.564 2,13 -8.833,8.167 -17.667,16.333 -26.5,24.5 -4.106,3.37 -8.773,4.703 -14,4 -30.473,-21.64 -60.806,-43.473 -90.999998,-65.5 -0.998,-8.307 -1.331,-16.64 -1,-25 -0.302,-2.559 0.032,-4.893 1,-7 z"
     id="path117" /><path
     fill="#333333"
     d="m 326.00175,706.00003 c 21.30887,-6.56933 36.02352,4.62524 35.86524,24.96724 -0.0607,7.80817 -28.97678,33.09966 -40.83561,39.30655 -20.2226,10.58448 -49.8303,-19.54636 -28.9208,-38.24786 l 11.39117,10.97407 c -0.97953,12.62246 4.95351,13.84633 10.11681,13.84302 5.61758,-0.004 9.90702,-2.54382 13.38319,-11.34302 -3.193,-3.184 -6.693,-6.018 -10.5,-8.5 1.22083,-3.02739 7.04485,-6.7926 9.5,-9 3.14,1.973 6.23057,4.03434 9,6.5 3.8506,3.42823 13.93988,-5.55499 7,-15 -2.98749,-4.0659 -9.139,-1.818 -13.5,0.5 -4.108,-1.971 -8.12172,-5.03021 -12.34672,-6.72621 -0.14263,-3.55309 7.16745,-6.44779 9.84672,-7.27379 z"
     id="path118" /><path
     fill="#484848"
     d="m 471.00175,736.00003 c 1.44,1.92 1.107,3.587 -1,5 -1,-0.333 -1.667,-1 -2,-2 0.84,-1.235 1.84,-2.235 3,-3 z"
     id="path119" /><path
     fill="#bcbcbc"
     d="m 735.00175,733.00003 c -1.046,5.096 -3.379,9.429 -7,13 2.083,-4.5 4.416,-8.834 7,-13 z"
     id="path120" /><path
     fill="#383838"
     d="m 235.00175,738.00003 c 1.052,-0.149 2.052,0.017 3,0.5 6.333,6.333 12.667,12.667 19,19 -8.645,-4.771 -16.978,-10.271 -25,-16.5 0.84,-1.235 1.84,-2.235 3,-3 z"
     id="path121" /><path
     fill="#d4d4d4"
     d="m 758.00175,724.00003 c 0.722,0.418 1.222,1.084 1.5,2 0.795,6.718 0.628,13.384 -0.5,20 -7.525,6.025 -15.191,11.859 -23,17.5 -1.555,1.289 -3.221,1.956 -5,2 9.167,-7.167 18.333,-14.333 27.5,-21.5 0.713,-6.703 0.546,-13.37 -0.5,-20 z"
     id="path122" /><path
     fill="#e3e3e3"
     d="m 779.00175,735.00003 c 4.086,15.66 -1.247,26.494 -16,32.5 4.915,-4.244 9.081,-9.077 12.5,-14.5 1.747,-5.899 2.913,-11.899 3.5,-18 z"
     id="path123" /><path
     fill="#ededed"
     d="m 692.00175,737.00003 c 1.098,15.823 1.765,31.823 2,48 0.122,10.392 -0.545,20.725 -2,31 -13.622,-11.622 -26.955,-23.456 -40,-35.5 0.35,-1.257 1.017,-1.591 2,-1 10.812,8.645 21.479,17.478 32,26.5 2.386,-22.96 4.386,-45.96 6,-69 z"
     id="path124" /><path
     fill="#9f9f9f"
     d="m 728.00175,746.00003 c -0.674,1.524 -1.674,2.858 -3,4 1.494,6.106 2.494,12.272 3,18.5 -0.5,0.5 -1,1 -1.5,1.5 -0.102,-6.613 -0.936,-13.113 -2.5,-19.5 0.118,-2.563 1.451,-4.063 4,-4.5 z"
     id="path125" /><path
     fill="#fbfbfb"
     d="m 524.00175,825.00003 c -1.443,-4.454 -2.443,-8.454 -3,-12 -19.056,8.027 -37.389,17.361 -55,28 -0.333,-0.167 -0.667,-0.333 -1,-0.5 4.484,-4.078 9.484,-7.411 15,-10 1.196,-0.654 1.196,-1.154 0,-1.5 -14.321,7.172 -27.988,15.339 -41,24.5 -2.997,0.755 -5.497,-0.078 -7.5,-2.5 -0.056,3.28 -0.889,6.28 -2.5,9 -2.066,-5.364 -4.233,-10.697 -6.5,-16 0.359,5.307 0.359,10.641 0,16 -27.153,-21.242 -54.486,-42.242 -82,-63 3.186,26.078 9.519,51.411 19,76 6.614,15.575 15.948,29.242 28,41 -2.463,-11.054 -5.13,-22.054 -8,-33 6.354,14.369 11.854,29.036 16.5,44 -2.64,-0.454 -4.973,-1.621 -7,-3.5 -14.56,-12.194 -29.393,-24.027 -44.5,-35.5 -5.464,-28.45 -9.297,-57.116 -11.5,-86 0.075,-4.055 0.575,-8.055 1.5,-12 29.303,-16.833 56.97,-36.166 83,-58 -0.463,3.27 -1.796,6.27 -4,9 -3.367,3.703 -7.034,7.036 -11,10 -0.688,0.832 -0.521,1.498 0.5,2 7.859,-4.359 13.859,-10.526 18,-18.5 5.559,-2.363 11.059,-4.863 16.5,-7.5 1.608,0.474 1.774,1.141 0.5,2 -6.78,3.472 -12.946,7.805 -18.5,13 -0.688,0.832 -0.521,1.498 0.5,2 3.938,-3.555 8.438,-6.222 13.5,-8 0.5,0.333 1,0.667 1.5,1 -1.14,1.578 -1.64,3.244 -1.5,5 2.012,-3.346 4.679,-6.012 8,-8 12.572,9.039 6.21341,4.76654 18.64141,14.06054 -17.361,12.194 -36.6616,21.08396 -55.3006,31.22396 l -22.32938,11.47122 c 29.25926,21.95001 29.83662,21.68289 51.48857,38.24428 5.28751,-4.48998 7.43863,-6.41152 12.26631,-9.67529 -4.335,-1.436 -32.543,-26.13986 -36.875,-27.70386 16.012,-13.327 46.07054,-21.42072 62.72554,-33.75972 12.889,8.047 43.27215,28.85287 55.38315,38.13887 1.192,10.611 0.025,20.944 -3.5,31 z"
     id="path126" /><path
     fill="#d7d7d7"
     d="m 226.00175,787.00003 c 1.149,0.291 1.816,1.124 2,2.5 -0.333,0.833 -0.667,1.667 -1,2.5 -0.952,-1.545 -1.285,-3.212 -1,-5 z"
     id="path127" /><path
     fill="#f2f2f2"
     d="m 648.00175,803.00003 c 4.532,-0.426 8.699,0.574 12.5,3 2.223,3.888 1.723,7.388 -1.5,10.5 -6.139,2.655 -11.639,1.822 -16.5,-2.5 -1.321,-5.359 0.513,-9.026 5.5,-11 z"
     id="path128" /><path
     fill="#373737"
     d="m 649.00175,807.00003 c 2.027,-0.162 4.027,0.005 6,0.5 1.711,1.133 2.211,2.633 1.5,4.5 -3.898,3.084 -7.065,2.584 -9.5,-1.5 0.478,-1.303 1.145,-2.469 2,-3.5 z"
     id="path129" /><path
     fill="#ebebeb"
     d="m 524.00175,825.00003 c -4.877,23.63 -9.711,47.297 -14.5,71 -5.025,1.882 -10.192,3.382 -15.5,4.5 -0.96,1.419 -1.793,2.919 -2.5,4.5 -0.654,1.196 -1.154,1.196 -1.5,0 1.047,-2.93 2.713,-5.43 5,-7.5 4.079,-1.132 7.913,-2.632 11.5,-4.5 4.512,-26.74 9.345,-53.406 14.5,-80 0.557,3.546 1.557,7.546 3,12 z"
     id="path132" /><path
     fill="#c8c8c8"
     d="m 365.00175,849.00003 c 4.181,6.043 6.681,12.71 7.5,20 -2.805,-6.586 -5.305,-13.253 -7.5,-20 z"
     id="path133" /><path
     fill="#8e8e8e"
     d="m 310.00175,864.00003 c 0.996,-0.086 1.829,0.248 2.5,1 0.667,1.667 0.667,3.333 0,5 -0.49,-1.293 -0.657,-2.627 -0.5,-4 -3.465,0.227 -6.799,0.727 -10,1.5 2.622,-1.475 5.288,-2.641 8,-3.5 z"
     id="path134" /><path
     fill="#f2f2f2"
     d="m 456.00175,850.00003 c -7.521,7.015 -15.521,13.515 -24,19.5 -1.878,1.543 -3.378,3.376 -4.5,5.5 -1.008,24.323 -1.842,48.657 -2.5,73 -12.146,-8.925 -21.48,-20.258 -28,-34 3.15,2.332 6.15,5.499 9,9.5 5.209,4.878 10.709,9.378 16.5,13.5 -0.515,-21.654 -0.515,-43.32 0,-65 0.93,-2.052 2.43,-3.552 4.5,-4.5 9.39,-6.359 19.057,-12.192 29,-17.5 z"
     id="path135" /><path
     fill="#efefef"
     d="m 233.00175,842.00003 c 1.039,2.583 2.372,5.083 4,7.5 15.834,4.612 31.5,9.612 47,15 -12.652,-1.828 -25.319,-3.995 -38,-6.5 -1.432,0.233 -1.932,0.9 -1.5,2 20.935,12.887 42.435,24.887 64.5,36 1.817,-1.916 2.984,-4.249 3.5,-7 0.333,-6 0.667,-12 1,-18 1.985,7.572 2.985,15.239 3,23 -2.167,2.167 -4.333,4.333 -6.5,6.5 -1,0.667 -2,0.667 -3,0 -19.333,-10.667 -38.667,-21.333 -58,-32 -4.786,-3.118 -9.286,-6.618 -13.5,-10.5 -1.16,-5.292 -1.993,-10.625 -2.5,-16 z"
     id="path136" /><path
     fill="#efefef"
     d="m 538.00175,885.00003 c 0.722,-0.418 1.222,-1.084 1.5,-2 0.186,2.536 0.686,4.869 1.5,7 0,1.667 0,3.333 0,5 1.052,0.149 2.052,-0.017 3,-0.5 28.1,-20.134 55.933,-40.634 83.5,-61.5 3.363,-26.674 7.529,-53.174 12.5,-79.5 -1.077,-0.47 -2.077,-0.303 -3,0.5 0.381,-1.431 1.381,-2.264 3,-2.5 -2.553,-1.656 -5.219,-1.823 -8,-0.5 2.141,-1.312 3.808,-3.145 5,-5.5 2.31,-0.497 4.643,-0.663 7,-0.5 -3.769,31.157 -8.436,62.157 -14,93 -29,20.167 -58,40.333 -87,60.5 -1.333,0.667 -2.667,0.667 -4,0 -6.479,-3.998 -12.312,-8.832 -17.5,-14.5 -0.798,-1.759 -0.631,-3.426 0.5,-5 3.151,2.65 6.151,5.484 9,8.5 2.027,1.879 4.36,3.046 7,3.5 0,-2 0,-4 0,-6 z"
     id="path137" /><path
     fill="#a3a3a3"
     d="m 541.00175,890.00003 c -0.814,-2.131 -1.314,-4.464 -1.5,-7 -0.278,0.916 -0.778,1.582 -1.5,2 0.452,-3.663 0.952,-7.33 1.5,-11 0.977,5.293 1.477,10.626 1.5,16 z"
     id="path138" /></svg>
